<svg width="200" height="272" viewBox="0 0 200 272" fill="none" xmlns="http://www.w3.org/2000/svg">
<path d="M9.53098 18.6526C24.6926 8.03169 88.7626 -2.12163e-10 104.629 0C151.972 6.3315e-10 160.042 8.73462 174.067 22.6295C188.093 36.5244 199.727 87.2926 199.727 133.233C199.727 161.212 204.633 210.694 172.83 239.82C151.806 259.074 104.629 266.466 104.629 266.466C104.629 266.466 24.6913 277.087 9.52967 266.466C-11.9119 251.446 9.52935 185.264 9.52967 133.233C9.52995 88.4866 -11.9106 33.6727 9.53098 18.6526Z" fill="black"/>
<path d="M58.5959 158.519C58.7075 146.537 62.173 123.291 75.1413 126.162C91.3516 129.75 105.912 151.964 116.325 143.791C124.655 137.252 133.859 110.997 137.419 98.6876" stroke="white" stroke-width="20" stroke-linecap="round"/>
</svg>
